<?xml version="1.0" encoding="UTF-8" standalone="no"?>
<!-- Created with Inkscape (http://www.inkscape.org/) -->

<svg
   width="99.030968mm"
   height="77.761147mm"
   viewBox="0 0 99.030968 77.761148"
   version="1.1"
   id="svg1"
   xml:space="preserve"
   sodipodi:docname="dsb.svg"
   inkscape:version="1.4.2 (ebf0e940d0, 2025-05-08)"
   xmlns:inkscape="http://www.inkscape.org/namespaces/inkscape"
   xmlns:sodipodi="http://sodipodi.sourceforge.net/DTD/sodipodi-0.dtd"
   xmlns="http://www.w3.org/2000/svg"
   xmlns:svg="http://www.w3.org/2000/svg"><sodipodi:namedview
     id="namedview1"
     pagecolor="#ffffff"
     bordercolor="#000000"
     borderopacity="0.25"
     inkscape:showpageshadow="2"
     inkscape:pageopacity="0.0"
     inkscape:pagecheckerboard="0"
     inkscape:deskcolor="#d1d1d1"
     inkscape:document-units="mm"
     inkscape:zoom="2.1099524"
     inkscape:cx="187.20801"
     inkscape:cy="92.656117"
     inkscape:window-width="2560"
     inkscape:window-height="1052"
     inkscape:window-x="0"
     inkscape:window-y="0"
     inkscape:window-maximized="1"
     inkscape:current-layer="layer1" /><defs
     id="defs1" /><g
     id="layer1"
     transform="translate(-53.41587,-71.9338)"><path
       style="fill:#ffffff;fill-opacity:1"
       d="m 73.015515,149.51654 c -1.109075,-0.40665 -1.203521,-0.74119 -1.172888,-4.15452 0.0306,-3.40992 0.207828,-3.80336 1.75138,-3.88808 1.805843,-0.0991 2.073188,0.45869 2.043831,4.26437 l -0.01937,2.51065 -0.206637,0.41955 c -0.396941,0.80594 -1.472774,1.18667 -2.396319,0.84803 z m 1.042302,-1.14332 c 0.575034,-0.29736 0.472362,-5.56076 -0.111686,-5.72552 -0.318822,-0.0899 -0.600258,0.0174 -0.734068,0.27998 -0.182147,0.35743 -0.138615,5.04557 0.0492,5.29908 0.189056,0.25517 0.482125,0.30905 0.79655,0.14646 z m 20.38643,1.14452 c -1.03016,-0.31987 -1.164737,-0.82802 -1.132657,-4.27679 0.02787,-2.99609 0.149562,-3.38656 1.147863,-3.68302 1.5303,-0.45445 2.533122,0.34041 2.533122,2.00781 v 0.6984 h -0.56411 -0.56411 l -0.03469,-0.62951 c -0.05632,-1.02211 -0.937616,-1.51822 -1.176696,-0.66241 -0.06405,0.22928 -0.06473,4.90055 -7.5e-4,5.12918 0.104199,0.37234 0.628469,0.47217 0.953695,0.18159 l 0.208057,-0.18589 0.01507,-0.78566 0.01507,-0.78566 0.574228,-0.0183 0.574229,-0.0183 v 0.86006 c 0,1.83164 -0.971325,2.6582 -2.548328,2.16853 z m 14.475893,0.008 c -0.76291,-0.24846 -1.21377,-1.05019 -1.14959,-2.04424 l 0.0206,-0.31854 0.58098,-0.0182 0.58098,-0.0182 0.0299,0.51579 c 0.0378,0.65229 0.14961,0.79479 0.62386,0.79479 0.99839,0 0.8608,-1.26849 -0.25568,-2.3572 -1.35694,-1.32319 -1.54127,-1.64149 -1.54953,-2.67575 -0.0105,-1.31494 0.70933,-1.99917 2.0308,-1.93032 1.07422,0.056 1.62282,0.67834 1.64535,1.86661 l 0.008,0.44596 -0.5893,0.0183 -0.5893,0.0183 v -0.32298 c 0,-0.78847 -0.64725,-1.20361 -1.08666,-0.69697 -0.43707,0.50396 -0.13736,1.20558 0.98975,2.317 2.26777,2.23618 1.37772,5.2746 -1.29054,4.40563 z m 4.33216,0 c -1.03641,-0.33753 -1.16088,-0.76504 -1.16088,-3.98734 0,-3.26784 0.12288,-3.67486 1.20504,-3.99153 1.46917,-0.42992 2.4275,0.31995 2.47858,1.93941 l 0.0247,0.78291 -0.59592,-0.0184 -0.59592,-0.0184 -0.0318,-0.65877 c -0.0414,-0.85576 -0.36914,-1.18187 -0.9015,-0.89696 -0.50828,0.27203 -0.46923,5.53446 0.0425,5.72902 0.61075,0.23221 0.81861,-0.0247 0.85899,-1.06177 l 0.0318,-0.81803 0.58931,-0.0183 0.5893,-0.0183 v 0.81903 c 0,1.83683 -1.00439,2.71568 -2.5342,2.21747 z m 15.36767,-0.0376 c -0.96761,-0.38148 -1.01168,-0.54396 -1.03415,-3.81293 -0.0255,-3.71427 0.1354,-4.11588 1.68343,-4.20088 1.38172,-0.0759 1.99834,0.63133 1.99834,2.29194 v 0.49796 h -0.60523 -0.60522 v -0.57654 c 0,-0.99572 -0.49248,-1.42541 -1.02424,-0.89365 l -0.18622,0.18623 v 2.55813 2.55813 l 0.18622,0.18622 c 0.55864,0.55864 0.98533,0.15866 1.01327,-0.94983 l 0.0209,-0.82886 0.58434,0.0109 0.58434,0.0109 -0.003,0.82821 c -0.006,1.84392 -1.09439,2.73279 -2.61308,2.13406 z m 8.42613,0.0357 c -0.76796,-0.27393 -1.07931,-0.75882 -1.1171,-1.73972 l -0.0252,-0.65301 h 0.5806 0.5806 l 0.005,0.27076 c 0.0159,0.81956 0.28258,1.16202 0.80238,1.03022 0.92426,-0.23437 0.64958,-1.32394 -0.65722,-2.607 -2.05905,-2.02164 -1.66289,-4.47984 0.70119,-4.35096 1.1012,0.06 1.69674,0.74066 1.69674,1.93915 v 0.40979 l -0.5893,-0.0183 -0.58931,-0.0183 -0.0378,-0.44067 c -0.086,-1.0018 -1.2045,-1.02288 -1.2045,-0.0227 0,0.54363 0.2033,0.86522 1.10343,1.74558 2.28339,2.23319 1.39538,5.39875 -1.24978,4.4552 z m -71.843921,-3.9809 v -3.95444 h 1.230961 c 1.384775,0 1.686067,0.06 2.030119,0.40401 0.706225,0.70622 0.645632,2.76057 -0.09308,3.15592 l -0.162943,0.0872 0.265376,0.19964 c 0.707937,0.53256 0.877807,2.45837 0.297553,3.37334 -0.357811,0.56421 -0.623044,0.64426 -2.214183,0.66831 l -1.3538,0.0205 z m 2.401432,2.64501 c 0.173616,-0.1492 0.179358,-0.17452 0.199903,-0.88145 0.03287,-1.13113 -0.146283,-1.38584 -0.974729,-1.38584 h -0.352442 v 1.21045 1.21046 h 0.474259 c 0.409327,0 0.498732,-0.021 0.653009,-0.15362 z m -0.242799,-3.51793 c 0.298954,-0.2094 0.421513,-0.91932 0.259448,-1.50287 -0.09204,-0.33141 -0.265146,-0.43191 -0.743989,-0.43191 h -0.399928 v 1.01934 1.01933 h 0.368074 c 0.237178,0 0.420821,-0.0369 0.516395,-0.10389 z m 2.407122,4.77582 c -0.02336,-0.0234 -0.04247,-1.80082 -0.04247,-3.94991 v -3.90743 h 0.637082 0.637082 v 3.94991 3.94991 h -0.59461 c -0.327035,0 -0.613722,-0.0191 -0.637082,-0.0425 z m 6.695625,-3.90742 0.01688,-3.94992 h 0.888075 0.888074 l 0.0349,0.20705 c 0.01919,0.11388 0.191955,1.33653 0.383917,2.717 0.191962,1.38047 0.358728,2.51965 0.370591,2.53151 0.01186,0.0119 0.144029,-0.85959 0.293701,-1.93657 0.149672,-1.07698 0.321475,-2.30217 0.381784,-2.72264 l 0.109653,-0.7645 0.903884,-0.0177 0.903884,-0.0177 v 3.95166 3.95166 h -0.605228 -0.605228 l -0.0062,-2.85095 -0.0062,-2.85094 -0.247586,1.59271 c -0.136172,0.87598 -0.320002,2.08007 -0.40851,2.67574 -0.24064,1.61954 -0.140664,1.43344 -0.770045,1.43344 -0.295052,0 -0.537176,-0.0215 -0.538053,-0.0478 -8.78e-4,-0.0263 -0.08423,-0.59248 -0.185224,-1.25823 -0.100996,-0.66575 -0.293792,-1.94151 -0.428435,-2.83502 l -0.244806,-1.62456 -0.01658,2.8828 -0.01658,2.8828 -0.556798,1e-5 -0.556797,1e-5 z m 6.067253,-1e-5 v -3.94991 h 1.720121 1.720122 v 0.57337 0.57337 h -1.083039 -1.08304 v 1.01934 1.01933 h 0.860061 0.860061 v 0.57337 0.57338 h -0.860061 -0.860061 v 1.21045 1.21046 h 1.08304 1.083039 v 0.57337 0.57338 h -1.720122 -1.720121 z m 4.141033,-0.005 v -3.95452 l 1.321946,0.0205 c 2.388883,0.0371 2.436839,0.11471 2.436839,3.94284 0,3.81276 -0.08622,3.94567 -2.559678,3.94567 h -1.199107 z m 2.183837,2.74943 c 0.291819,-0.11095 0.306485,-0.25729 0.287084,-2.86463 l -0.01815,-2.43987 -0.150401,-0.12174 c -0.115526,-0.0935 -0.252174,-0.12174 -0.589301,-0.12174 H 87.94601 v 2.80317 2.80316 h 0.378101 c 0.207956,0 0.447163,-0.0263 0.531571,-0.0583 z m 2.403154,-2.74481 v -3.94991 h 0.637082 0.637083 v 3.94991 3.94991 h -0.637083 -0.637082 z m 6.205663,3.77471 c 0.01985,-0.0964 0.151039,-0.89192 0.29153,-1.76791 0.140492,-0.87598 0.413216,-2.56175 0.606054,-3.74614 0.192837,-1.1844 0.350614,-2.1663 0.350614,-2.18201 0,-0.12985 1.720313,-0.017 1.750313,0.11478 0.0179,0.0788 0.1321,0.75972 0.25367,1.51307 0.12158,0.75335 0.39413,2.43402 0.60568,3.73482 0.21154,1.3008 0.38462,2.39737 0.38462,2.43684 0,0.0483 -0.20432,0.0718 -0.62583,0.0718 h -0.62584 l -0.11283,-0.7645 -0.11284,-0.7645 h -0.687672 -0.687675 l -0.03657,0.20705 c -0.02011,0.11388 -0.07065,0.4579 -0.112307,0.7645 l -0.07574,0.55745 H 98.02904 97.428405 Z m 2.586071,-2.55552 c 0,-0.12849 -0.415757,-3.08309 -0.485323,-3.44898 -0.03932,-0.20683 -0.521719,2.8757 -0.530897,3.39246 l -0.0031,0.1752 h 0.509665 c 0.45469,0 0.509665,-0.0128 0.509665,-0.11868 z m 2.22979,-1.21919 v -3.94991 h 0.63708 0.63708 v 3.37653 3.37654 h 1.01933 1.01933 v 0.57337 0.57338 h -1.65641 -1.65641 z m 14.20693,0 v -3.94991 h 0.63708 0.63708 v 3.94991 3.94991 h -0.63708 -0.63708 z m 2.22978,0 v -3.94991 h 1.68827 1.68827 v 0.57337 0.57337 l -1.06711,-4e-5 -1.06712,-5e-5 0.0137,1.00345 0.0136,1.00345 0.83048,0.0178 0.83048,0.0178 v 0.56967 0.56968 l -0.83529,0.0178 -0.8353,0.0178 0.005,1.1786 0.005,1.1786 1.05292,0.0175 1.05292,0.0175 v 0.57183 0.57184 h -1.68827 -1.68827 z m 4.07733,-0.002 v -3.95181 l 0.80672,0.0178 0.80672,0.0178 0.23192,0.89192 c 0.12756,0.49055 0.38808,1.50822 0.57894,2.26148 l 0.34701,1.36957 0.0167,-2.27741 0.0167,-2.27741 h 0.57257 0.57257 v 3.94991 3.94991 h -0.65829 -0.65829 l -0.43224,-1.67235 c -0.23774,-0.91978 -0.57007,-2.18837 -0.73852,-2.81908 l -0.30628,-1.14675 -0.005,2.81909 -0.005,2.81909 h -0.57338 -0.57337 z m 9.17398,0.002 v -3.94991 h 1.7226 1.72261 l -0.0184,0.55744 -0.0184,0.55745 -1.06711,0.0175 -1.06711,0.0175 v 1.01779 1.01779 h 0.86006 0.86006 v 0.57337 0.57338 h -0.86006 -0.86006 v 1.21045 1.21046 h 1.08304 1.08303 v 0.57337 0.57338 h -1.72012 -1.72012 z m -9.01708,-5.89883 c -0.38448,-0.13652 -0.70101,-0.43134 -0.90148,-0.83967 l -0.17919,-0.36497 v -2.73945 -2.73946 l 0.15056,-0.333 c 0.59393,-1.31365 2.74223,-1.40523 3.3855,-0.14431 0.29704,0.58224 0.37447,5.47369 0.0983,6.20675 -0.32705,0.86797 -1.53019,1.31749 -2.55364,0.95411 z m 1.16432,-1.14281 c 0.25998,-0.18209 0.42826,-4.52779 0.20628,-5.32697 -0.14078,-0.50685 -0.91733,-0.56543 -1.11833,-0.0844 -0.1321,0.31614 -0.133,4.83808 -0.001,5.15392 0.14594,0.34928 0.59941,0.47712 0.91309,0.25741 z m -48.932488,1.13801 c -0.02336,-0.0234 -0.04247,-1.81515 -0.04247,-3.98176 v -3.9393 H 76.3077 c 1.658963,0 2.057634,0.15348 2.444353,0.941 l 0.179247,0.36502 v 2.61204 c 0,3.10577 -0.04794,3.34289 -0.760027,3.75915 -0.404943,0.23671 -2.799838,0.43215 -2.988139,0.24385 z m 2.234372,-1.26543 c 0.241595,-0.16922 0.270926,-0.46935 0.267533,-2.73757 -0.0041,-2.76185 -0.0062,-2.76833 -0.872037,-2.77037 l -0.398176,-9.4e-4 v 2.80316 2.80316 h 0.431782 c 0.284396,0 0.479268,-0.0333 0.570898,-0.0974 z m 2.310147,-2.67282 v -3.98281 h 1.720121 1.720122 v 0.57338 0.57337 h -1.08304 -1.083039 v 1.01748 1.01749 l 0.844134,0.0178 0.844133,0.0178 v 0.57337 0.57338 l -0.844133,0.0178 -0.844134,0.0178 v 1.17521 1.17521 l 1.067112,0.0175 1.067113,0.0175 v 0.57337 0.57338 l -1.704195,0.017 -1.704194,0.017 z m 4.141033,-0.005 v -3.98993 l 1.226383,0.0241 c 2.093754,0.0411 2.434688,0.36929 2.436092,2.34484 0.0013,1.77847 -0.474593,2.35725 -1.937989,2.35718 l -0.482176,-3e-5 v 1.60866 1.60866 l -0.621155,0.0182 -0.621155,0.0182 z m 2.210308,-0.5643 0.17875,-0.15375 v -0.90295 -0.90295 l -0.17875,-0.15375 c -0.147325,-0.12673 -0.248128,-0.15377 -0.573374,-0.15383 l -0.394624,-7e-5 0.01859,1.21053 0.01859,1.21052 h 0.376033 c 0.305655,0 0.409487,-0.0288 0.554783,-0.15375 z m 1.42106,4.51947 c 0,-0.0508 0.134124,-0.88405 0.736113,-4.57309 0.295928,-1.81347 0.538051,-3.31141 0.538051,-3.32875 0,-0.0173 0.38475,-0.0315 0.854999,-0.0315 h 0.854999 l 0.0368,0.1752 c 0.02024,0.0964 0.166906,0.97792 0.325925,1.95903 0.15902,0.98111 0.431426,2.65307 0.605346,3.71548 0.17392,1.0624 0.316219,1.97367 0.316219,2.02504 0,0.0769 -0.109597,0.0902 -0.621155,0.0752 l -0.621155,-0.0182 -0.07893,-0.50967 c -0.04341,-0.28031 -0.100824,-0.62434 -0.127583,-0.7645 l -0.04865,-0.25483 -0.677104,-0.018 -0.677104,-0.018 -0.119251,0.7825 -0.119251,0.78251 -0.589131,0.0183 c -0.324023,0.0101 -0.589132,0.003 -0.589132,-0.0166 z m 2.611961,-2.72523 c -1.24e-4,-0.12945 -0.500374,-3.62747 -0.521817,-3.64882 -0.0108,-0.0108 -0.135201,0.82375 -0.276459,1.85445 l -0.256832,1.87401 h 0.527592 c 0.379642,0 0.52757,-0.0223 0.527516,-0.0796 z m 2.229863,-1.22638 v -3.98177 h 1.168477 c 2.134035,0 2.514108,0.30784 2.535948,2.05395 0.01142,0.91322 -0.0944,1.27564 -0.472116,1.61688 -0.187696,0.16958 -0.237258,0.24722 -0.1714,0.26853 0.492902,0.15947 0.645695,0.6863 0.695947,2.39961 0.02261,0.77087 0.0538,1.44459 0.0693,1.49714 0.04555,0.15439 -1.148829,0.17549 -1.260863,0.0223 -0.05794,-0.0792 -0.08212,-0.45241 -0.0858,-1.32453 -0.0075,-1.77747 -0.112004,-2.0102 -0.902715,-2.01046 l -0.302614,-1e-4 v 1.72012 1.72012 h -0.637082 -0.637082 z m 2.270225,-0.8194 c 0.539696,-0.62743 0.120331,-2.01562 -0.608911,-2.01562 h -0.38715 v 1.12232 1.12231 l 0.422687,-0.0269 c 0.36468,-0.0232 0.443366,-0.051 0.573374,-0.2021 z m 3.272389,1.39508 v -3.4107 h -0.668936 -0.668936 v -0.57337 -0.57338 h 1.9431 1.943102 v 0.57338 0.57337 h -0.636525 -0.636524 l -0.01649,3.39246 -0.01649,3.39247 -0.621155,0.0182 -0.621155,0.0182 z m 3.1217,-0.57495 v -3.98599 l 0.90717,0.0177 0.90717,0.0177 0.38198,2.75102 c 0.21008,1.51305 0.39,2.74298 0.39981,2.73317 0.01,-0.01 0.14536,-0.93241 0.30121,-2.05022 0.15586,-1.11782 0.32743,-2.34557 0.38128,-2.72834 0.0539,-0.38278 0.0979,-0.7053 0.0979,-0.71672 0,-0.0114 0.40136,-0.0208 0.89191,-0.0208 h 0.89192 v 3.98416 3.98415 l -0.57608,-0.0183 -0.57608,-0.0183 0.004,-2.86282 c 0.002,-1.57455 -0.0132,-2.84569 -0.0341,-2.82476 -0.0209,0.0209 -0.22934,1.3092 -0.46314,2.86282 l -0.42508,2.82476 h -0.53982 -0.53983 l -0.13863,-0.92377 c -0.52669,-3.50951 -0.73978,-4.87728 -0.76361,-4.90146 -0.0151,-0.0153 -0.0256,1.28915 -0.0235,2.89873 l 0.004,2.9265 -0.54418,0.0184 -0.54419,0.0184 z m 6.11068,3.95451 c -0.0146,-0.0146 -0.019,-1.80639 -0.01,-3.98177 l 0.0169,-3.95524 h 1.68731 1.68732 v 0.57184 0.57183 l -1.06712,0.0175 -1.06711,0.0175 -0.008,1.0034 -0.008,1.00341 h 0.85187 0.85188 v 0.60522 0.60523 h -0.85688 -0.85688 l 0.006,1.16268 0.006,1.16267 1.05799,0.0318 1.05799,0.0319 0.0183,0.5893 0.0183,0.5893 h -1.68004 c -0.92403,0 -1.69199,-0.0119 -1.70659,-0.0265 z m 4.08264,-3.95276 v -3.98425 h 0.78843 0.78843 l 0.29354,1.16268 c 0.16144,0.63947 0.43516,1.69305 0.60826,2.34128 l 0.31472,1.1786 0.005,-2.34128 0.005,-2.34128 h 0.57385 0.57386 l -0.0164,3.96584 -0.0164,3.96584 -0.64996,0.0181 -0.64996,0.0181 -0.0621,-0.2411 c -0.0638,-0.24786 -0.26432,-1.02037 -0.99639,-3.83966 -0.23188,-0.89299 -0.42681,-1.62884 -0.43317,-1.63523 -0.006,-0.006 -0.0116,1.26893 -0.0116,2.83406 v 2.84569 l -0.55745,0.0184 -0.55744,0.0184 z m 5.83991,3.93681 c -0.0234,-0.0234 -0.0425,-1.55714 -0.0425,-3.40839 v -3.36592 h -0.63708 -0.63708 v -0.57337 -0.57338 h 1.9431 1.9431 v 0.57338 0.57337 h -0.66894 -0.66893 v 3.40839 3.40839 h -0.59461 c -0.32704,0 -0.61373,-0.0191 -0.63709,-0.0425 z m 9.42901,-0.004 c -0.0172,-0.0279 -0.0267,-1.81353 -0.0211,-3.96808 l 0.0103,-3.91738 1.67234,-0.017 1.67234,-0.017 v 0.57285 0.57286 l -1.03526,0.0175 -1.03525,0.0175 -0.0175,1.06711 -0.0175,1.06711 h 0.82975 0.82975 v 0.57338 0.57337 h -0.78954 c -0.96563,0 -0.87228,-0.19887 -0.86451,1.84183 l 0.006,1.63027 -0.60437,0.0182 c -0.3324,0.01 -0.61847,-0.005 -0.63571,-0.0325 z M 96.674034,128.4002 c -2.04223,-0.11937 -4.344036,-0.4416 -6.571612,-0.91995 -0.572836,-0.12301 -1.458087,-0.29521 -1.967225,-0.38266 -5.021402,-0.86247 -10.513303,-2.47487 -14.937638,-4.38561 -1.102436,-0.47612 -1.381046,-0.60547 -2.581174,-1.19837 -26.748316,-13.2145 -21.469631,-37.810134 10.066889,-46.905897 2.519901,-0.726791 7.363207,-1.825121 8.04823,-1.825121 0.09761,0 0.106668,0.212304 0.109412,2.564255 l 0.003,2.564256 0.170939,-0.222979 c 2.634604,-3.436651 7.559828,-5.377902 14.380405,-5.66796 6.8201,-0.290039 11.5199,0.128232 17.90201,1.593237 24.54068,5.633279 37.04188,21.309557 28.43513,35.657139 -5.10384,8.50819 -17.40881,15.32005 -32.30454,17.88335 l -0.23805,0.041 -0.0168,-2.10886 -0.0168,-2.10886 -0.23365,0.30638 c -2.04774,2.68514 -5.80625,4.44918 -10.71739,5.03014 -0.95189,0.11261 -7.991797,0.17654 -9.531148,0.0865 z m 5.867886,-0.25747 c 7.95905,-1.15071 12.48744,-6.12022 12.47897,-13.69458 -0.006,-5.2383 -2.21389,-8.54598 -7.4209,-11.11664 -1.78576,-0.88162 -3.10511,-1.39522 -7.26273,-2.82724 -6.138166,-2.114185 -8.788121,-3.498395 -10.910035,-5.69888 l -0.589301,-0.611121 v 16.463521 16.46352 l 2.404985,0.0205 2.404985,0.0205 0.981029,0.23428 c 1.494879,0.35699 3.846699,0.73346 5.612767,0.89847 0.45888,0.0429 1.36594,-0.0172 2.30023,-0.15224 z M 86.323778,106.62852 c -0.01786,-10.818452 -0.03367,-19.999602 -0.03512,-20.402556 -0.0015,-0.402954 0.01426,-3.395186 0.03491,-6.649404 l 0.03755,-5.916759 -0.238467,0.04474 c -1.393127,0.261352 -6.343755,1.934034 -8.210681,2.774165 -0.140158,0.06307 -0.555854,0.249609 -0.923769,0.414525 -21.928904,9.829569 -25.109093,30.020719 -6.689362,42.471029 4.355153,2.94375 10.666727,5.71273 15.704073,6.88962 0.389462,0.091 0.356733,2.09282 0.320869,-19.62536 z m 34.909772,19.23454 c 14.77913,-4.20753 24.91052,-13.32157 26.19115,-23.56116 0.0579,-0.46283 0.088,-0.88642 0.067,-0.9413 -0.0346,-0.0902 -1.36823,-0.0983 -13.9127,-0.0837 l -13.87441,0.0161 -0.0126,12.49724 -0.0126,12.49725 0.55411,-0.14872 c 0.30476,-0.0818 0.75479,-0.20584 1.00007,-0.27567 z M 117.18808,89.855743 V 72.844062 l -2.08645,0.04037 -2.08644,0.04037 -1.21046,-0.224975 c -1.25335,-0.232948 -2.2757,-0.374735 -3.5358,-0.490373 -0.40296,-0.03698 -0.83299,-0.07668 -0.95563,-0.08822 -2.42771,-0.228513 -7.723913,1.18705 -10.354666,2.767584 -7.55799,4.540776 -8.189113,16.094353 -1.165763,21.340882 2.125999,1.588147 4.382479,2.59963 10.086999,4.52158 6.12763,2.06449 8.8159,3.4599 10.8304,5.62177 0.24527,0.26322 0.45312,0.48213 0.46188,0.48648 0.009,0.004 0.0159,-7.647365 0.0159,-17.003789 z m 30.2978,8.363291 c -0.78773,-9.795125 -10.25769,-18.953611 -24.31307,-23.513393 -1.13016,-0.366643 -3.22435,-0.966486 -3.37422,-0.966486 -0.12496,0 -0.12589,0.09301 -0.12589,12.518663 v 12.518663 h 13.929 13.92901 z"
       id="path1"
       sodipodi:nodetypes="sssscsssscsssscssscccsssscccccscccccccsssscccccssscccsssccccssccccscccccscccsscccssccccccccccccsscsccccscccccscscssccccsscccsccsscccsccscccccsccccccsscsscccccccccssssssccccccccccccccccccccccccccccccccccsscccscsscccscccccccccccsssscsssscccccsscccsssscssscccccccccccccccccccccccccccccccccccccccccccccccccccsscccccccccsscccccccccccccccccccccccccccccccsscccsscsscsscccsscsscssssccscccscccccccccccccccccccccccccccccccsccccccccccsscccsscsssscssssscssccccccssscscsssccsssssssssccccccsscccssscccccccccccccccccccccssscsscccccccscccssccccccccccccccccccccccccccccsccccccssccccccccccssscccccscccccccccccccscccccccccccccccccsccscccssssssscssssccccssccccssscccccscccscscsscsssscscccccsccccccsscsssscccsssscccs" /></g></svg>
